<?xml version="1.0" encoding="UTF-8"?>
<svg width="193px" height="30px" viewBox="0 0 193 30" version="1.1" xmlns="http://www.w3.org/2000/svg" xmlns:xlink="http://www.w3.org/1999/xlink">
    <!-- Generator: Sketch 48.2 (47327) - http://www.bohemiancoding.com/sketch -->
    <title>menu_negative_logo_expanded</title>
    <desc>Created with Sketch.</desc>
    <defs></defs>
    <g id="Images" stroke="none" stroke-width="1" fill="none" fill-rule="evenodd">
        <g id="Navigation" transform="translate(-65.000000, -211.000000)"></g>
        <g id="menu_negative_logo_expanded">
            <g id="Icons/negative-logo-expanded">
                <path d="M27.7847486,19.7366667 C27.7847486,24.115 24.2086705,27.6766667 19.8131792,27.6766667 L9.94786705,27.6766667 C5.55293353,27.6766667 1.97741329,24.115 1.97741329,19.7366667 L1.97741329,9.90888889 C1.97741329,5.53055556 5.55293353,1.96888889 9.94786705,1.96888889 L19.8131792,1.96888889 C24.2086705,1.96888889 27.7847486,5.53055556 27.7847486,9.90888889 L27.7847486,19.7366667 Z M19.8131792,0 L9.94786705,0 C4.46298555,0 0,4.445 0,9.90888889 L0,19.7366667 C0,25.2005556 4.46298555,29.6455556 9.94786705,29.6455556 L19.8131792,29.6455556 C25.3014075,29.6455556 29.7660665,25.2005556 29.7660665,19.7366667 L29.7660665,9.90888889 C29.7660665,4.445 25.3014075,0 19.8131792,0 L19.8131792,0 Z" id="Fill-1" fill="#FFFFFF"></path>
                <path d="M17.7641439,12.1822222 C18.6800572,10.5983333 18.1384301,8.57222222 16.5475746,7.65611111 C14.9567191,6.74277778 12.9212942,7.285 12.0048231,8.86944444 C11.0838896,10.4544444 11.6294214,12.4794444 13.2197191,13.3927778 C14.8111324,14.3105556 16.8476728,13.7672222 17.7641439,12.1822222" id="Fill-4" fill="#ED8B00"></path>
                <path d="M13.7053428,19.4690556 C14.6257185,17.8840556 14.0801867,15.8551667 12.489889,14.9423889 C10.9001491,14.0285 8.86305087,14.5718333 7.94657977,16.1557222 C7.02620405,17.7396111 7.57117803,19.7657222 9.16203353,20.6796111 C10.7534468,21.5957222 12.7894295,21.0518333 13.7053428,19.4690556" id="Fill-6" fill="#ED8B00"></path>
                <path d="M16.0616162,19.4676667 C16.9780873,21.0526667 19.0123965,21.596 20.603252,20.6787778 C22.1924341,19.7665556 22.7396393,17.741 21.8220526,16.1565556 C20.9050237,14.5721111 18.8684832,14.0287778 17.2781855,14.9426667 C15.6862145,15.856 15.1406827,17.8837778 16.0616162,19.4676667" id="Fill-8" fill="#ED8B00"></path>
                <path d="M55.9436717,14.825 C55.9436717,16.1733333 55.4210098,17.4483333 54.4716283,18.4155556 C53.5088595,19.375 52.1941168,19.925 50.8648711,19.925 C49.5384145,19.925 48.2387324,19.375 47.2988335,18.4155556 C46.3343913,17.4572222 45.8039202,16.1822222 45.8039202,14.825 C45.8039202,13.4672222 46.3343913,12.1911111 47.2988335,11.2322222 C48.2392902,10.2744444 49.5384145,9.725 50.8648711,9.725 C52.193559,9.725 53.5083017,10.2744444 54.4710705,11.2322222 C55.4210098,12.2005556 55.9436717,13.4761111 55.9436717,14.825 M56.0083769,9.69944444 C54.6177728,8.31555556 52.7915243,7.55388889 50.8648711,7.55388889 C48.9594145,7.55388889 47.0907728,8.33611111 45.7380994,9.7 C44.3748277,11.1016667 43.6234665,12.9216667 43.6234665,14.825 C43.6234665,16.7277778 44.3748277,18.5472222 45.7380994,19.9483333 C47.0890994,21.3333333 48.9097699,22.0961111 50.8648711,22.0961111 C52.8127208,22.0961111 54.6395272,21.3338889 56.0089347,19.9483333 C57.3727642,18.5472222 58.1241254,16.7277778 58.1241254,14.825 C58.1241254,12.9216667 57.3727642,11.1016667 56.0083769,9.69944444" id="Fill-10" fill="#FFFFFF"></path>
                <path d="M66.4662994,16.6569444 C68.7270769,16.2280556 70.1829439,14.4875 70.1829439,12.2008333 C70.1829439,9.95805556 68.6863572,7.54361111 65.400337,7.54361111 L60.0627156,7.54361111 L60.0627156,22.1108333 L62.2314555,22.1108333 L62.2314555,9.74472222 L65.400337,9.74472222 C66.6481434,9.74472222 67.9907763,10.5136111 67.9907763,12.2008333 C67.9907763,13.3919444 67.1802879,14.6747222 65.400337,14.6747222 L62.9041665,14.6747222 L62.9041665,15.7325 L68.2105509,22.0936111 L68.224496,22.1108333 L71.0659468,22.1108333 L66.4662994,16.6569444 Z" id="Fill-12" fill="#FFFFFF"></path>
                <path d="M83.8244182,16.5578333 L83.8138199,16.5900556 C83.1020627,18.6750556 81.2953373,19.9706111 79.0981494,19.9706111 C77.7828488,19.9706111 76.5417361,19.4311667 75.6023951,18.4517222 C74.6580338,17.4683889 74.138161,16.1878333 74.138161,14.8461667 C74.138161,13.4606111 74.6440887,12.1995 75.6023951,11.1989444 C76.5450829,10.2200556 77.7861957,9.68116667 79.0981494,9.68116667 C81.2992419,9.68116667 82.9732101,10.8467222 83.6927766,12.8795 L83.7033749,12.9111667 L85.8492448,12.9111667 L85.8347419,12.8522778 C85.0019413,9.57894444 82.4209847,7.54505556 79.0981494,7.54505556 C77.2423373,7.54505556 75.421109,8.3245 74.1002303,9.68338889 C72.7681957,11.0950556 72.0352419,12.9283889 72.0352419,14.8461667 C72.0352419,16.7367222 72.7681957,18.5556111 74.1002303,19.9678333 C75.4194355,21.3478333 77.1943662,22.1083889 79.0981494,22.1083889 C82.4109442,22.1083889 85.0945367,19.9522778 85.9351465,16.6161667 L85.9496494,16.5578333 L83.8244182,16.5578333 Z" id="Fill-14" fill="#FFFFFF"></path>
                <polygon id="Fill-16" fill="#FFFFFF" points="90.0557523 19.9182778 90.0557523 15.9193889 96.8040587 15.9193889 96.8040587 13.7155 90.0557523 13.7155 90.0557523 9.7355 96.8040587 9.7355 96.8040587 7.55327778 87.8423882 7.55327778 87.8423882 22.1016111 96.8040587 22.1016111 96.8040587 19.9182778"></polygon>
                <path d="M39.187646,9.72994444 L42.5567789,9.72994444 L42.5567789,7.54938889 L38.3492673,7.54938889 C35.6389003,7.83161111 33.5951084,10.0943889 33.5951084,12.8138333 L33.5951084,22.0960556 L35.7895072,22.0960556 L35.7895072,15.9143889 L41.602935,15.9143889 L41.602935,13.7105 L35.7895072,13.7105 L35.7889494,13.1088333 C36.0299205,11.5355 36.6345795,9.72994444 39.187646,9.72994444" id="Fill-18" fill="#FFFFFF"></path>
                <polygon id="Fill-20" fill="#FFFFFF" points="111.249607 7.53272222 111.100115 7.53272222 111.015887 7.65605556 105.515945 15.7332778 100.035526 7.65661111 99.9512974 7.53272222 99.8018061 7.53272222 99.4872049 7.53272222 99.2049564 7.53272222 99.2049564 7.81383333 99.2049564 21.8205 99.2049564 22.1016111 99.4872049 22.1016111 99.7817251 22.1016111 100.063974 22.1016111 100.063974 21.8205 100.063974 9.18994444 105.162855 16.7466111 105.246526 16.8710556 105.397133 16.8710556 105.65428 16.8710556 105.804887 16.8710556 105.888558 16.7466111 110.986881 9.18994444 110.986881 21.8205 110.986881 22.1016111 111.26913 22.1016111 111.56365 22.1016111 111.845899 22.1016111 111.845899 21.8205 111.845899 7.81383333 111.845899 7.53272222 111.56365 7.53272222"></polygon>
                <polygon id="Fill-22" fill="#FFFFFF" points="137.852258 7.53272222 137.57001 7.53272222 137.57001 7.81383333 137.57001 20.3699444 128.756715 7.69161111 128.671929 7.54661111 127.965192 7.53272222 127.965192 7.83327778 127.965192 21.5916111 127.965192 22.1016111 128.24744 22.1016111 128.563715 22.1016111 128.846521 22.1016111 128.846521 21.5916111 128.846521 9.38216667 137.60292 21.9799444 137.687148 22.1016111 137.834966 22.1016111 138.146778 22.1016111 138.429027 22.1016111 138.429027 21.8205 138.429027 7.81383333 138.429027 7.53272222 138.146778 7.53272222"></polygon>
                <path d="M116.959785,16.5608333 L119.897736,9.0025 L122.852979,16.5608333 L116.959785,16.5608333 Z M120.337285,7.71027778 L120.267002,7.5325 L120.075117,7.5325 L119.738762,7.5325 L119.546877,7.5325 L119.476036,7.71027778 L113.937606,21.6963889 L113.784768,22.0808333 L114.200331,22.0808333 L114.536687,22.0808333 L114.726898,22.0808333 L114.798297,21.9052778 L116.599444,17.4175 L123.197701,17.4175 L125.015583,21.9263889 L125.087539,22.1013889 L125.277192,22.1013889 L125.610759,22.1013889 L126.026323,22.1013889 L125.873484,21.7169444 L120.337285,7.71027778 Z" id="Fill-24" fill="#FFFFFF"></path>
                <path d="M143.542523,16.5608333 L146.480474,9.0025 L149.435716,16.5608333 L143.542523,16.5608333 Z M146.920023,7.71027778 L146.84974,7.5325 L146.657855,7.5325 L146.3215,7.5325 L146.129615,7.5325 L146.058774,7.71027778 L140.520344,21.6963889 L140.367505,22.0808333 L140.783069,22.0808333 L141.119425,22.0808333 L141.309636,22.0808333 L141.381034,21.9052778 L143.182182,17.4175 L149.780439,17.4175 L151.598321,21.9263889 L151.670277,22.1013889 L151.85993,22.1013889 L152.193497,22.1013889 L152.60906,22.1013889 L152.456222,21.7169444 L146.920023,7.71027778 Z" id="Fill-26" fill="#FFFFFF"></path>
                <path d="M159.497487,15.8048333 L159.215796,15.8048333 L159.215796,16.0853889 L159.215796,16.4003889 L159.215796,16.6809444 L159.497487,16.6809444 L165.225571,16.6809444 C164.602504,19.1587222 162.004814,21.1926111 159.376444,21.1926111 C157.732597,21.1926111 156.185808,20.5215 155.020556,19.3026111 C153.863672,18.0931667 153.22666,16.4920556 153.22666,14.7931667 C153.22666,13.1148333 153.86423,11.5137222 155.021672,10.2853889 C156.2031,9.06705556 157.750447,8.39427778 159.376444,8.39427778 C161.891022,8.39427778 164.0804,9.8615 164.954478,12.1326111 L165.024204,12.3126111 L165.217762,12.3126111 L165.553559,12.3126111 L165.9496,12.3126111 L165.819632,11.9403889 C164.900371,9.29594444 162.311048,7.51927778 159.376444,7.51927778 C157.487721,7.51927778 155.718926,8.28094444 154.395259,9.66316667 C153.075496,11.0642778 152.349793,12.8853889 152.349793,14.7931667 C152.349793,16.7242778 153.076053,18.5459444 154.395259,19.9237222 C155.731756,21.3192778 157.501108,22.0881667 159.376444,22.0881667 C162.070077,22.0881667 164.99464,20.0537222 165.895493,17.5526111 C166.094071,17.0498333 166.210094,16.5742778 166.246909,16.1076111 L166.270895,15.8048333 L165.965776,15.8048333 L159.497487,15.8048333 Z" id="Fill-28" fill="#FFFFFF"></path>
                <polygon id="Fill-30" fill="#FFFFFF" points="169.090591 21.2434444 169.090591 15.2317778 176.137322 15.2317778 176.420129 15.2317778 176.420129 14.9506667 176.420129 14.6373333 176.420129 14.3562222 176.137322 14.3562222 169.090591 14.3562222 169.090591 8.37511111 176.137322 8.37511111 176.420129 8.37511111 176.420129 8.094 176.420129 7.80066667 176.420129 7.51955556 176.137322 7.51955556 168.49151 7.51955556 168.209262 7.51955556 168.209262 7.80066667 168.209262 21.8201111 168.209262 22.1012222 168.49151 22.1012222 168.533903 22.1012222 176.137322 22.1012222 176.420129 22.1012222 176.420129 21.8201111 176.420129 21.5245556 176.420129 21.2434444 176.137322 21.2434444"></polygon>
                <path d="M187.933917,21.6115556 L181.81816,16.1243333 L183.313631,16.1243333 C185.509703,16.1243333 187.733108,14.6487778 187.733108,11.8287778 C187.733108,10.7065556 187.339299,9.65877778 186.624753,8.87877778 C185.818169,7.99822222 184.672998,7.53266667 183.313631,7.53266667 L178.70227,7.53266667 L178.541623,7.53266667 L178.259374,7.53266667 L178.259374,7.81377778 L178.259374,7.97155556 L178.259374,21.8204444 L178.259374,22.1015556 L178.541623,22.1015556 L178.838374,22.1015556 L179.12118,22.1015556 L179.12118,21.8204444 L179.12118,8.41044444 L183.313631,8.41044444 C184.419198,8.41044444 185.343478,8.77988889 185.987183,9.47822222 C186.558374,10.0993333 186.872975,10.9371111 186.872975,11.8382222 C186.872975,13.4893333 185.759042,15.266 183.313631,15.266 L180.631712,15.266 L180.349464,15.266 L180.349464,15.5476667 L180.349464,15.8432222 L180.349464,15.9682222 L180.442617,16.0515556 L187.100001,22.0287778 L187.180883,22.1015556 L187.289654,22.1015556 L187.744822,22.1015556 L188.478334,22.1015556 L187.933917,21.6115556 Z" id="Fill-32" fill="#FFFFFF"></path>
                <path d="M190.534788,19.8933889 L190.866681,19.8933889 C191.081435,19.8933889 191.215866,19.8845 191.269415,19.8661667 C191.322406,19.8478333 191.364799,19.8167222 191.395478,19.7728333 C191.4256,19.7283889 191.44066,19.6733889 191.44066,19.6067222 C191.44066,19.5322778 191.420579,19.4722778 191.380975,19.4261667 C191.341371,19.3811667 191.285033,19.3517222 191.211961,19.3395 C191.175704,19.3345 191.066932,19.3322778 190.885088,19.3322778 L190.534788,19.3322778 L190.534788,19.8933889 Z M190.086314,21.1695 L190.086314,18.9578333 L191.030675,18.9578333 C191.267741,18.9578333 191.440103,18.9778333 191.547201,19.0172778 C191.654857,19.0572778 191.741316,19.1278333 191.805464,19.2295 C191.870169,19.3311667 191.903079,19.4478333 191.903079,19.5783889 C191.903079,19.7439444 191.853435,19.8811667 191.755819,19.9889444 C191.658204,20.0972778 191.510944,20.1650556 191.31627,20.1933889 C191.413886,20.2495 191.493652,20.3117222 191.556684,20.3795 C191.619715,20.4461667 191.704501,20.5661667 191.812158,20.7378333 L192.08325,21.1695 L191.546643,21.1695 L191.222559,20.6883889 C191.107652,20.5161667 191.028444,20.4078333 190.986608,20.3633889 C190.943658,20.3183889 190.898475,20.2878333 190.851062,20.2717222 C190.804207,20.2545 190.728903,20.2461667 190.625152,20.2461667 L190.534788,20.2461667 L190.534788,21.1695 L190.086314,21.1695 Z" id="Fill-34" fill="#FFFFFF"></path>
                <path d="M190.96491,21.7986667 C191.878592,21.7986667 192.622144,21.0586667 192.622144,20.1486667 C192.622144,19.2381111 191.878592,18.4981111 190.96491,18.4981111 C190.051228,18.4981111 189.308234,19.2381111 189.308234,20.1486667 C189.308234,21.0586667 190.051228,21.7986667 190.96491,21.7986667 M192.926147,20.1486667 C192.926147,21.227 192.048164,22.1014444 190.96491,22.1014444 C189.882213,22.1014444 189.004231,21.227 189.004231,20.1486667 C189.004231,19.0697778 189.882213,18.1953333 190.96491,18.1953333 C192.048164,18.1953333 192.926147,19.0697778 192.926147,20.1486667" id="Fill-36" fill="#FFFFFF"></path>
            </g>
        </g>
    </g>
</svg>